# xmcd
#
# Track frame offsets: 
#        150
#        15532
#        27932
#        41562
#        59060
#        73902
#        84697
#        97525
#        112790
#        124627
#        136492
#        150892
#        164615
#        180957
#
# Disc length: 2572 seconds
#
# Revision: 0
# Processed by: cddbd v1.4PL0 Copyright (c) Steve Scherf et al.
# Submitted via: ExactAudioCopy v0.90a11
#
DISCID=a90a0a0e
DTITLE=Che&Ray - Boogie Dig-It-All
DYEAR=1900
DGENRE=
TTITLE0=Bi - Turbo - Boogie
TTITLE1=Jive - Drive
TTITLE2=Cruiser 2000
TTITLE3=Blues Of No Return
TTITLE4=Shuttle
TTITLE5=Dig-It-All - Boogie
TTITLE6=Floatin'
TTITLE7=Boogie - Countdown
TTITLE8=One Way To Heaven
TTITLE9=One And Two
TTITLE10=Boogie On The Spacetrain
TTITLE11=Terminal B
TTITLE12=Hyppo Walk
TTITLE13=Don't Shoot The Piano-Players
EXTD=
EXTT0=
EXTT1=
EXTT2=
EXTT3=
EXTT4=
EXTT5=
EXTT6=
EXTT7=
EXTT8=
EXTT9=
EXTT10=
EXTT11=
EXTT12=
EXTT13=
PLAYORDER=
